<mxfile host="app.diagrams.net" modified="2021-11-13T09:37:46.411Z" agent="5.0 (X11)" etag="mgy_khObrXX11rX9EmzC" version="15.7.3" type="github">
  <diagram name="Page-1" id="197159a0-c6a4-9194-75a8-e4174976684c">
    <mxGraphModel dx="2062" dy="1080" grid="1" gridSize="10" guides="1" tooltips="1" connect="1" arrows="1" fold="1" page="1" pageScale="1.5" pageWidth="1169" pageHeight="826" background="none" math="0" shadow="0">
      <root>
        <mxCell id="0" style=";html=1;" />
        <mxCell id="1" style=";html=1;" parent="0" />
        <mxCell id="YApbJpbIoY-pW7K9Kt5q-5" value="" style="endArrow=none;startArrow=classic;html=1;rounded=0;fontSize=20;exitX=0.5;exitY=0;exitDx=0;exitDy=0;endFill=0;" edge="1" parent="1">
          <mxGeometry width="50" height="50" relative="1" as="geometry">
            <mxPoint x="845" y="590" as="sourcePoint" />
            <mxPoint x="1135" y="460" as="targetPoint" />
            <Array as="points">
              <mxPoint x="845" y="500" />
              <mxPoint x="1135" y="500" />
            </Array>
          </mxGeometry>
        </mxCell>
        <mxCell id="YApbJpbIoY-pW7K9Kt5q-6" value="" style="endArrow=none;startArrow=classic;html=1;rounded=0;fontSize=20;exitX=0.5;exitY=0;exitDx=0;exitDy=0;endFill=0;entryX=0.5;entryY=1;entryDx=0;entryDy=0;" edge="1" parent="1" target="YApbJpbIoY-pW7K9Kt5q-13">
          <mxGeometry width="50" height="50" relative="1" as="geometry">
            <mxPoint x="845" y="590" as="sourcePoint" />
            <mxPoint x="575" y="460" as="targetPoint" />
            <Array as="points">
              <mxPoint x="845" y="500" />
              <mxPoint x="575" y="500" />
            </Array>
          </mxGeometry>
        </mxCell>
        <mxCell id="YApbJpbIoY-pW7K9Kt5q-8" value="" style="endArrow=classic;html=1;rounded=0;fontSize=20;entryX=0.5;entryY=0;entryDx=0;entryDy=0;exitX=0.5;exitY=1;exitDx=0;exitDy=0;" edge="1" parent="1">
          <mxGeometry width="50" height="50" relative="1" as="geometry">
            <mxPoint x="845" y="960" as="sourcePoint" />
            <mxPoint x="845" y="1040" as="targetPoint" />
          </mxGeometry>
        </mxCell>
        <mxCell id="YApbJpbIoY-pW7K9Kt5q-11" value="" style="group" vertex="1" connectable="0" parent="1">
          <mxGeometry x="965" y="120" width="370" height="340" as="geometry" />
        </mxCell>
        <mxCell id="YApbJpbIoY-pW7K9Kt5q-9" value="&lt;font style=&quot;font-size: 20px&quot;&gt;Fill Service&lt;/font&gt;" style="points=[[0,0],[0.25,0],[0.5,0],[0.75,0],[1,0],[1,0.25],[1,0.5],[1,0.75],[1,1],[0.75,1],[0.5,1],[0.25,1],[0,1],[0,0.75],[0,0.5],[0,0.25]];outlineConnect=0;gradientColor=none;html=1;whiteSpace=wrap;fontSize=12;fontStyle=0;shape=mxgraph.aws4.group;grIcon=mxgraph.aws4.group_on_premise;strokeColor=#5A6C86;fillColor=none;verticalAlign=top;align=left;spacingLeft=30;fontColor=#5A6C86;dashed=0;" vertex="1" parent="YApbJpbIoY-pW7K9Kt5q-11">
          <mxGeometry x="-20" y="-30" width="390" height="370" as="geometry" />
        </mxCell>
        <mxCell id="YApbJpbIoY-pW7K9Kt5q-10" value="&lt;div&gt;- sends fills:&lt;/div&gt;&lt;blockquote&gt;&lt;div&gt;&lt;span style=&quot;white-space: pre&quot;&gt;{&lt;/span&gt;&lt;/div&gt;&lt;div&gt;&lt;span style=&quot;white-space: pre&quot;&gt;&lt;span style=&quot;white-space: pre&quot;&gt;	&lt;/span&gt;&quot;stock_ticker&quot;: &lt;/span&gt;&lt;/div&gt;&lt;div&gt;&lt;span style=&quot;white-space: pre&quot;&gt;&lt;span style=&quot;white-space: pre&quot;&gt;	&lt;/span&gt;&quot;price&quot;:&lt;/span&gt;&lt;/div&gt;&lt;div&gt;&lt;span style=&quot;white-space: pre&quot;&gt;&lt;span style=&quot;white-space: pre&quot;&gt;	&lt;/span&gt;&quot;quantity&quot;:&lt;/span&gt;&lt;/div&gt;&lt;div&gt;&lt;span style=&quot;white-space: pre&quot;&gt;}&lt;br&gt;&lt;/span&gt;&lt;/div&gt;&lt;/blockquote&gt;&lt;div&gt;- random intervals&lt;br&gt;&lt;/div&gt;" style="text;html=1;strokeColor=none;fillColor=none;align=left;verticalAlign=middle;whiteSpace=wrap;rounded=0;fontSize=20;" vertex="1" parent="YApbJpbIoY-pW7K9Kt5q-11">
          <mxGeometry x="20" y="80" width="310" height="90" as="geometry" />
        </mxCell>
        <mxCell id="YApbJpbIoY-pW7K9Kt5q-12" value="" style="group" vertex="1" connectable="0" parent="1">
          <mxGeometry x="400" y="110" width="370" height="340" as="geometry" />
        </mxCell>
        <mxCell id="YApbJpbIoY-pW7K9Kt5q-13" value="&lt;font style=&quot;font-size: 20px&quot;&gt;AUM Service&lt;/font&gt;" style="points=[[0,0],[0.25,0],[0.5,0],[0.75,0],[1,0],[1,0.25],[1,0.5],[1,0.75],[1,1],[0.75,1],[0.5,1],[0.25,1],[0,1],[0,0.75],[0,0.5],[0,0.25]];outlineConnect=0;gradientColor=none;html=1;whiteSpace=wrap;fontSize=12;fontStyle=0;shape=mxgraph.aws4.group;grIcon=mxgraph.aws4.group_on_premise;strokeColor=#5A6C86;fillColor=none;verticalAlign=top;align=left;spacingLeft=30;fontColor=#5A6C86;dashed=0;" vertex="1" parent="YApbJpbIoY-pW7K9Kt5q-12">
          <mxGeometry x="-20" y="-30" width="390" height="370" as="geometry" />
        </mxCell>
        <mxCell id="YApbJpbIoY-pW7K9Kt5q-14" value="&lt;div&gt;- sends accounts:&lt;/div&gt;&lt;blockquote&gt;&lt;div&gt;&lt;span style=&quot;white-space: pre&quot;&gt;{&lt;/span&gt;&lt;/div&gt;&lt;div&gt;&lt;span style=&quot;white-space: pre&quot;&gt;&lt;span style=&quot;white-space: pre&quot;&gt;	&lt;/span&gt;&quot;account1&quot;: &lt;/span&gt;&lt;/div&gt;&lt;div&gt;&lt;span style=&quot;white-space: pre&quot;&gt;&lt;span style=&quot;white-space: pre&quot;&gt;	&lt;/span&gt;&quot;account2&quot;:&lt;/span&gt;&lt;/div&gt;&lt;div&gt;&lt;span style=&quot;white-space: pre&quot;&gt;&lt;span style=&quot;white-space: pre&quot;&gt;	&lt;/span&gt;&quot;accountn&quot;:&lt;/span&gt;&lt;/div&gt;&lt;div&gt;&lt;span style=&quot;white-space: pre&quot;&gt;}&lt;br&gt;&lt;/span&gt;&lt;/div&gt;&lt;/blockquote&gt;&lt;div&gt;- 30 seconds intervals&lt;br&gt;&lt;/div&gt;" style="text;html=1;strokeColor=none;fillColor=none;align=left;verticalAlign=middle;whiteSpace=wrap;rounded=0;fontSize=20;" vertex="1" parent="YApbJpbIoY-pW7K9Kt5q-12">
          <mxGeometry x="20" y="80" width="310" height="90" as="geometry" />
        </mxCell>
        <mxCell id="YApbJpbIoY-pW7K9Kt5q-20" value="" style="group" vertex="1" connectable="0" parent="1">
          <mxGeometry x="280" y="620" width="1300" height="340" as="geometry" />
        </mxCell>
        <mxCell id="YApbJpbIoY-pW7K9Kt5q-21" value="&lt;font style=&quot;font-size: 20px&quot;&gt;Controller Service&lt;/font&gt;" style="points=[[0,0],[0.25,0],[0.5,0],[0.75,0],[1,0],[1,0.25],[1,0.5],[1,0.75],[1,1],[0.75,1],[0.5,1],[0.25,1],[0,1],[0,0.75],[0,0.5],[0,0.25]];outlineConnect=0;gradientColor=none;html=1;whiteSpace=wrap;fontSize=12;fontStyle=0;shape=mxgraph.aws4.group;grIcon=mxgraph.aws4.group_on_premise;strokeColor=#5A6C86;fillColor=none;verticalAlign=top;align=left;spacingLeft=30;fontColor=#5A6C86;dashed=0;" vertex="1" parent="YApbJpbIoY-pW7K9Kt5q-20">
          <mxGeometry x="-20" y="-30" width="1210" height="370" as="geometry" />
        </mxCell>
        <mxCell id="YApbJpbIoY-pW7K9Kt5q-22" value="&lt;div&gt;- receives fills in random intervals&lt;/div&gt;&lt;div&gt;- receives account splits&lt;/div&gt;&lt;div&gt;- keep track of the positions held by each account&lt;br&gt;&lt;/div&gt;&lt;div&gt;- divide the stocks&lt;/div&gt;&lt;div&gt;- each account has an overall position that matches the split from the AUM Server&lt;/div&gt;&lt;div&gt;- each account is allocated a number of stocks so that the overall value of the fills they have is proportional to their AUM Percentage&lt;br&gt;&lt;/div&gt;&lt;div&gt;- reports the new overall positions to the position server at 10 sec interval&lt;br&gt;&lt;/div&gt;" style="text;html=1;strokeColor=none;fillColor=none;align=left;verticalAlign=middle;whiteSpace=wrap;rounded=0;fontSize=20;" vertex="1" parent="YApbJpbIoY-pW7K9Kt5q-20">
          <mxGeometry y="40" width="1300" height="90" as="geometry" />
        </mxCell>
        <mxCell id="YApbJpbIoY-pW7K9Kt5q-27" value="&lt;font style=&quot;font-size: 20px&quot;&gt;Position Service&lt;/font&gt;" style="points=[[0,0],[0.25,0],[0.5,0],[0.75,0],[1,0],[1,0.25],[1,0.5],[1,0.75],[1,1],[0.75,1],[0.5,1],[0.25,1],[0,1],[0,0.75],[0,0.5],[0,0.25]];outlineConnect=0;gradientColor=none;html=1;whiteSpace=wrap;fontSize=12;fontStyle=0;shape=mxgraph.aws4.group;grIcon=mxgraph.aws4.group_on_premise;strokeColor=#5A6C86;fillColor=none;verticalAlign=top;align=left;spacingLeft=30;fontColor=#5A6C86;dashed=0;" vertex="1" parent="1">
          <mxGeometry x="650" y="1040" width="390" height="140" as="geometry" />
        </mxCell>
        <mxCell id="YApbJpbIoY-pW7K9Kt5q-28" value="-print out the new positions / values" style="text;html=1;strokeColor=none;fillColor=none;align=left;verticalAlign=middle;whiteSpace=wrap;rounded=0;fontSize=20;" vertex="1" parent="1">
          <mxGeometry x="670" y="1080" width="340" height="90" as="geometry" />
        </mxCell>
      </root>
    </mxGraphModel>
  </diagram>
</mxfile>
